<svg width="298" height="80" viewBox="0 0 298 80" fill="none" xmlns="http://www.w3.org/2000/svg">
<path d="M46.4411 8.57989C48.3741 8.57989 50.2073 9.34061 51.5791 10.7124L68.0779 27.2112C68.7264 27.8597 68.7264 28.9072 68.0779 29.5557L61.1442 36.4895C60.6578 36.9758 59.8846 36.9758 59.3983 36.4895L50.0826 27.1738C49.8457 26.9369 49.721 26.6376 49.721 26.3009C49.721 25.9766 49.8457 25.6648 50.0826 25.4279L50.4567 25.0538C51.9283 23.5822 52.7264 21.6243 52.7139 19.5542C52.7015 17.4715 51.8659 15.5386 50.3694 14.092L49.8207 13.5557L41.1785 22.198C40.0811 23.2954 39.4825 24.7545 39.4825 26.3009C39.4825 27.8472 40.0811 29.3063 41.1785 30.4037L56.1683 45.3936C57.2658 46.491 58.7249 47.0896 60.2712 47.0896C61.8176 47.0896 63.2767 46.491 64.3741 45.3936L77.2814 32.4864C79.5386 30.2291 79.5386 26.5503 77.2814 24.2806L57.6399 4.63913C54.6469 1.64614 50.6687 0 46.4411 0C42.2136 0 38.2354 1.64614 35.2424 4.63913L0 39.869L0.548714 40.4178C2.02026 41.8893 3.97818 42.7124 6.06079 42.7124C6.06079 42.7124 6.06079 42.7124 6.07326 42.7124C8.15588 42.7124 10.1138 41.9018 11.5853 40.4302L41.3032 10.7124C42.675 9.34061 44.4957 8.57989 46.4411 8.57989Z" fill="black"/>
<path d="M92.5706 39.5573C89.5277 36.5144 84.5768 36.5144 81.5215 39.5573L51.7911 69.2876C50.4194 70.6594 48.5986 71.4201 46.6532 71.4201C44.7078 71.4201 42.887 70.6594 41.5152 69.2876L25.0289 52.7888C24.7171 52.477 24.5425 52.0655 24.5425 51.6165C24.5425 51.1801 24.7171 50.7561 25.0289 50.4443L31.8379 43.6352C32.4864 42.9868 33.5339 42.9868 34.1824 43.6352L43.2487 52.7015C43.4856 52.9384 43.6103 53.2502 43.6103 53.5744C43.6103 53.8987 43.4856 54.2104 43.2487 54.4474L42.7124 54.9836C39.6696 58.0265 39.6571 62.9899 42.6875 66.0452L43.2362 66.5939L52.1528 57.6649C53.2502 56.5674 53.8488 55.1083 53.8488 53.562C53.8488 52.0156 53.2502 50.5565 52.1528 49.4591L37.4248 34.7436C36.2401 33.5589 34.6813 32.9104 33.0102 32.9104C31.3391 32.9104 29.7678 33.5589 28.5955 34.7436L16.1372 47.2019C13.7054 49.6337 13.7054 53.5994 16.1372 56.0312L35.23 75.1364C38.223 78.1294 42.0764 79.8503 46.092 79.9875C46.2791 80 46.4786 80 46.6657 80C50.9057 80 54.859 78.3663 57.8644 75.3609L93.1193 40.106L92.5706 39.5573Z" fill="black"/>
<path d="M127.763 28.7701C131.567 28.8823 133.787 28.8823 134.435 28.7701H135.009L135.096 28.6828C137.378 28.1465 139.299 26.9493 140.87 25.1037C142.441 23.3079 143.451 21.2751 143.888 18.993H108.795C102.447 18.993 99.2674 22.2728 99.2674 28.8449V51.1551C99.2674 57.6648 102.522 60.9197 109.032 60.9197H132.228C135.695 60.9197 138.525 59.6477 140.695 57.0912C142.267 55.2954 143.277 53.2627 143.713 50.9805L109.045 51.1551V44.8075H111.489L129.073 44.7202C132.539 44.8823 135.37 43.6851 137.54 41.1411C139.112 39.3453 140.122 37.3126 140.546 35.0304H109.032V28.7576H127.763V28.7701Z" fill="black"/>
<path d="M183.283 18.993H148.028C148.028 25.5027 151.096 28.7576 157.232 28.7576H183.283C184.692 28.7576 185.403 30.2292 185.403 33.1598C185.403 36.0405 184.692 37.4747 183.283 37.4747L148.041 37.3874V60.9072H157.805V47.2393H183.283C186.912 47.2393 189.843 45.7428 192.075 42.7623C194.133 40.106 195.168 36.901 195.168 33.1598C195.168 29.4186 194.133 26.1886 192.075 23.47C189.843 20.4895 186.912 18.993 183.283 18.993Z" fill="black"/>
<path d="M235.224 18.993H214.061C210.582 18.993 207.763 20.265 205.593 22.8215C204.022 24.6173 203.012 26.65 202.575 28.9322L235.224 28.7701C236.633 28.7701 237.344 29.8301 237.344 31.9501V36.6765H205.269C198.859 36.8387 195.692 39.9813 195.741 46.1169V51.9782C195.741 57.9517 198.996 60.9571 205.506 61.0195L237.743 60.9322C243.978 60.9322 247.109 58.0265 247.109 52.2276V31.9377C247.109 28.4084 246.011 25.378 243.816 22.8215C241.609 20.265 238.753 18.993 235.224 18.993ZM237.344 51.6415H205.518V46.4287H237.344V51.6415Z" fill="black"/>
<path d="M288.038 18.993L272.324 36.8262L257.833 18.993H246.522L267.361 44.795V60.9197H277.126V44.795L297.802 18.993H288.038Z" fill="black"/>
<path d="M109.705 68.2525H107.735V73.2159C107.735 74.3882 107.049 74.9618 105.69 74.9618V68.2401H101.737C101.737 66.8808 102.323 66.1949 103.507 66.1949H111.676C111.676 67.5666 111.015 68.2525 109.705 68.2525Z" fill="black"/>
<path d="M126.017 68.2276L126.005 68.2401H125.88C125.743 68.265 125.281 68.265 124.483 68.2401H120.567V69.5495H127.152C127.065 70.0234 126.853 70.4474 126.528 70.8215C126.08 71.3577 125.481 71.6072 124.758 71.5697L121.079 71.5822H120.567V72.9041L127.813 72.8792C127.726 73.3531 127.514 73.7771 127.177 74.1512C126.728 74.6874 126.129 74.9493 125.406 74.9493H120.555C119.196 74.9493 118.51 74.2634 118.51 72.9041V68.2401C118.51 66.8683 119.171 66.1824 120.505 66.1824H127.838C127.751 66.6563 127.539 67.0803 127.202 67.4544C126.903 67.8659 126.491 68.1153 126.017 68.2276Z" fill="black"/>
<path d="M141.144 72.9166V72.9041L144.511 72.8917C144.424 73.3656 144.212 73.7896 143.888 74.1637C143.439 74.6999 142.84 74.9618 142.117 74.9618H141.144V74.9493L137.727 74.9618C136.929 74.9618 136.256 74.6999 135.707 74.1761C135.146 73.6524 134.872 72.9914 134.872 72.1933V68.9634C134.872 68.1652 135.146 67.5043 135.707 66.9805C136.268 66.4567 136.942 66.1949 137.727 66.1949H144.499L144.487 66.2073C144.399 66.6687 144.187 67.0928 143.85 67.4669C143.402 68.0031 142.803 68.265 142.08 68.265H141.107V68.2276H137.727C137.179 68.2276 136.917 68.477 136.917 68.9634V72.1808C136.917 72.6672 137.191 72.9166 137.727 72.9166H141.144Z" fill="black"/>
<path d="M160.798 74.9743C159.427 74.9743 158.741 74.4131 158.741 73.2907V71.6072H153.503V74.9743C152.144 74.9743 151.458 74.4131 151.458 73.2782V66.2198C152.817 66.2198 153.503 66.781 153.503 67.8909V69.5744H158.741V66.2198C160.112 66.2198 160.798 66.781 160.798 67.8909V74.9743Z" fill="black"/>
<path d="M175.838 74.9743L170.575 69.0756V73.2658C170.575 74.4131 169.889 74.9867 168.53 74.9867V67.9033C168.53 66.781 169.216 66.2198 170.575 66.2198L175.838 72.0686V67.8784C175.838 66.7685 176.524 66.2073 177.883 66.2073V73.2907C177.883 74.4131 177.21 74.9743 175.838 74.9743Z" fill="black"/>
<path d="M195.729 72.1808C195.729 72.9789 195.454 73.6274 194.893 74.1637C194.332 74.6874 193.659 74.9493 192.873 74.9493H187.735C186.937 74.9493 186.263 74.6874 185.715 74.1637C185.154 73.6399 184.879 72.9789 184.879 72.1808V68.9758C184.879 68.1777 185.154 67.5292 185.715 66.993C186.276 66.4692 186.949 66.2073 187.735 66.2073H192.873C193.671 66.2073 194.344 66.4692 194.893 66.993C195.454 67.5167 195.729 68.1777 195.729 68.9758V72.1808ZM193.684 72.1808V68.9758C193.684 68.4895 193.409 68.2525 192.873 68.2525H187.735C187.186 68.2525 186.924 68.4895 186.924 68.9758V72.1808C186.924 72.6672 187.199 72.9041 187.735 72.9041H192.873C193.422 72.9166 193.684 72.6672 193.684 72.1808Z" fill="black"/>
<path d="M202.687 66.2073C204.059 66.2073 204.745 66.781 204.745 67.9033V72.1933C204.745 72.6796 205.007 72.929 205.543 72.929H207.726C209.16 72.929 209.883 73.6149 209.883 74.9743H205.543C204.745 74.9743 204.072 74.7124 203.523 74.1886C202.962 73.6648 202.687 73.0039 202.687 72.2057V66.2073Z" fill="black"/>
<path d="M228.527 72.1808C228.527 72.9789 228.253 73.6274 227.691 74.1637C227.13 74.6874 226.457 74.9493 225.671 74.9493H220.533C219.735 74.9493 219.062 74.6874 218.513 74.1637C217.952 73.6399 217.677 72.9789 217.677 72.1808V68.9758C217.677 68.1777 217.952 67.5292 218.513 66.993C219.074 66.4692 219.747 66.2073 220.533 66.2073H225.671C226.469 66.2073 227.143 66.4692 227.691 66.993C228.253 67.5167 228.527 68.1777 228.527 68.9758V72.1808ZM226.482 72.1808V68.9758C226.482 68.4895 226.207 68.2525 225.671 68.2525H220.533C219.984 68.2525 219.723 68.4895 219.723 68.9758V72.1808C219.723 72.6672 219.997 72.9041 220.533 72.9041H225.671C226.207 72.9166 226.482 72.6672 226.482 72.1808Z" fill="black"/>
<path d="M243.105 74.9743H238.341C237.543 74.9743 236.87 74.7124 236.321 74.1886C235.76 73.6648 235.486 73.0039 235.486 72.2058V68.9883C235.486 68.1902 235.76 67.5292 236.321 67.0054C236.882 66.4817 237.556 66.2198 238.341 66.2198H244.514C244.514 67.5791 243.766 68.265 242.282 68.265H238.329C237.78 68.265 237.518 68.5144 237.518 69.0008V72.2182C237.518 72.7046 237.793 72.954 238.329 72.954H243.055V71.6321H241.833C240.624 71.6321 240.013 70.9462 240.013 69.5869H243.043C244.415 69.5869 245.101 70.2104 245.101 71.47V72.954C245.113 74.2884 244.44 74.9743 243.105 74.9743Z" fill="black"/>
<path d="M254.13 74.9743C252.77 74.9743 252.084 74.4131 252.084 73.2782V66.2198C253.444 66.2198 254.13 66.781 254.13 67.9033V74.9743Z" fill="black"/>
<path d="M268.583 68.2276L268.571 68.2401H268.446C268.309 68.265 267.847 68.265 267.049 68.2401H263.133V69.5495H269.718C269.631 70.0234 269.419 70.4474 269.094 70.8215C268.645 71.3577 268.047 71.6072 267.324 71.5697L263.645 71.5822H263.133V72.9041L270.379 72.8792C270.292 73.3531 270.08 73.7771 269.743 74.1512C269.294 74.6874 268.695 74.9493 267.972 74.9493H263.121C261.762 74.9493 261.076 74.2634 261.076 72.9041V68.2401C261.076 66.8683 261.737 66.1824 263.071 66.1824H270.404C270.316 66.6563 270.104 67.0803 269.768 67.4544C269.469 67.8659 269.069 68.1153 268.583 68.2276Z" fill="black"/>
<path d="M287.863 72.2681C287.863 73.0039 287.639 73.6399 287.202 74.1512C286.728 74.6999 286.13 74.9618 285.394 74.9618H277.836C277.836 73.6025 278.56 72.9166 280.019 72.9166H285.394C285.681 72.9166 285.818 72.6921 285.818 72.2556C285.818 71.8192 285.681 71.5947 285.394 71.5947H279.894C279.171 71.5947 278.572 71.3203 278.086 70.7841C277.637 70.2728 277.4 69.6492 277.4 68.9135C277.4 68.1777 277.637 67.5417 278.098 67.0054C278.56 66.4692 279.158 66.2073 279.882 66.2073H287.439C287.439 67.5666 286.803 68.2525 285.518 68.2525H279.882C279.595 68.2525 279.458 68.477 279.458 68.9135C279.458 69.3499 279.595 69.5619 279.882 69.5619H285.381C286.105 69.5619 286.703 69.8363 287.19 70.3725C287.638 70.8963 287.863 71.5323 287.863 72.2681Z" fill="black"/>
</svg>
